<svg t="1586229244243" class="icon" viewBox="0 0 1024 1024" version="1.1" xmlns="http://www.w3.org/2000/svg" p-id="5462" width="200" height="200"><path d="M512.011 64c60.2 0 118.6 11.7 173.6 34.8 53.8 22.5 102 55 143.3 96.3 41.3 41.4 73.7 89.6 96.3 143.3 23.3 55.6 35.1 114.7 34.806 175.6-0.203 40.18-5.546 79.523-16.003 117.565-17.945-22.219-40.195-40.816-65.482-54.524 3.634-20.704 5.552-41.876 5.682-63.341 0.197-50.6-9.503-99.6-28.903-145.8-18.7-44.6-45.7-84.7-80-119-34.4-34.4-74.4-61.3-119-80-45.7-19.2-94.2-28.9-144.2-28.9h-1.7c-99.7 0.4-193 39.4-262.8 109.9-69.9 70.5-108 164.1-107.603 263.8 0.303 60.3 15.303 120.2 43.503 173.1l4.5 8.4V836h140.8l8.4 4.5c52.9 28.2 112.8 43.2 173.1 43.5h1.7c25.931 0 51.45-2.62 76.255-7.737a217.525 217.525 0 0 0 56.559 63.868C602.095 953.304 557.622 960 512.11 960h-2.1c-69.4-0.3-138.3-16.9-199.9-48h-152.1c-25.4 0-46-20.6-46-46V714c-31.1-61.6-47.7-130.5-48.006-199.9-0.294-60.6 11.306-119.5 34.306-174.9 22.2-53.5 54.3-101.5 95.2-142.8 40.9-41.3 88.7-73.7 142-96.5 55.2-23.6 113.9-35.6 174.5-35.9z m0 400c26.51 0 48 21.49 48 48s-21.49 48-48 48-48-21.49-48-48 21.49-48 48-48z m200 0c26.51 0 48 21.49 48 48 0 18.977-11.012 35.382-26.995 43.172a213.15 213.15 0 0 0-19.398 4.8c-0.533 0.02-1.069 0.028-1.607 0.028-26.51 0-48-21.49-48-48s21.49-48 48-48z m-400 0c26.51 0 48 21.49 48 48s-21.49 48-48 48-48-21.49-48-48 21.49-48 48-48z" p-id="5463"></path><path d="M828 647.1c0-3.9-3.1-7.1-7-7.1h-42c-3.8 0-7 3.2-7 7.1V772H647.5c-4.1 0-7.5 3.1-7.5 7v42c0 3.8 3.4 7 7.5 7H772v124.9c0 3.9 3.2 7.1 7 7.1h42c3.9 0 7-3.2 7-7.1V828h124.5c4.1 0 7.5-3.2 7.5-7v-42c0-3.9-3.4-7-7.5-7H828V647.1z" p-id="5464"></path></svg>
