<?xml version="1.0" standalone="no"?><!DOCTYPE svg PUBLIC "-//W3C//DTD SVG 1.1//EN" "http://www.w3.org/Graphics/SVG/1.1/DTD/svg11.dtd"><svg t="1578378001038" class="icon" viewBox="0 0 1024 1024" version="1.1" xmlns="http://www.w3.org/2000/svg" p-id="5298" xmlns:xlink="http://www.w3.org/1999/xlink" width="200" height="200"><defs><style type="text/css"></style></defs><path d="M936.562 512.438a8 8 0 0 1-2.196 2.196L428.744 853.203a8 8 0 0 1-12.451-6.648V169.418a8 8 0 0 1 12.451-6.647l505.622 338.568a8 8 0 0 1 2.196 11.099z m-157.62-4.452L508.292 326.757v362.457l270.648-181.228zM291.707 864h-90.154a8 8 0 0 1-8-8V168a8 8 0 0 1 8-8h90.154a8 8 0 0 1 8 8v688a8 8 0 0 1-8 8z" fill="#65B7F3" p-id="5299"></path></svg>