<?xml version="1.0" standalone="no"?><!DOCTYPE svg PUBLIC "-//W3C//DTD SVG 1.1//EN" "http://www.w3.org/Graphics/SVG/1.1/DTD/svg11.dtd"><svg t="1578379352198" class="icon" viewBox="0 0 1024 1024" version="1.1" xmlns="http://www.w3.org/2000/svg" p-id="4593" xmlns:xlink="http://www.w3.org/1999/xlink" width="200" height="200"><defs><style type="text/css"></style></defs><path d="M917.7 148.8l-42.4-42.4c-1.6-1.6-3.6-2.3-5.7-2.3s-4.1 0.8-5.7 2.3l-76.1 76.1c-33.7-22.9-72.9-34.3-112.1-34.3-51.2 0-102.4 19.5-141.5 58.6L432.3 308.7c-3.1 3.1-3.1 8.2 0 11.3L704 591.7c1.6 1.6 3.6 2.3 5.7 2.3 2 0 4.1-0.8 5.7-2.3l101.9-101.9c68.9-69 77-175.7 24.3-253.5l76.1-76.1c3.1-3.2 3.1-8.3 0-11.4zM769.1 441.7l-59.4 59.4-186.8-186.8 59.4-59.4c24.9-24.9 58.1-38.7 93.4-38.7 35.3 0 68.4 13.7 93.4 38.7 24.9 24.9 38.7 58.1 38.7 93.4 0 35.3-13.8 68.4-38.7 93.4z m-190.2 105c-3.1-3.1-8.2-3.1-11.3 0L501 613.3 410.7 523l66.7-66.7c3.1-3.1 3.1-8.2 0-11.3L441 408.6c-3.1-3.1-8.2-3.1-11.3 0L363 475.3l-43-43c-1.6-1.6-3.6-2.3-5.7-2.3-2 0-4.1 0.8-5.7 2.3L206.8 534.2c-68.9 69-77 175.7-24.3 253.5l-76.1 76.1c-3.1 3.1-3.1 8.2 0 11.3l42.4 42.4c1.6 1.6 3.6 2.3 5.7 2.3s4.1-0.8 5.7-2.3l76.1-76.1c33.7 22.9 72.9 34.3 112.1 34.3 51.2 0 102.4-19.5 141.5-58.6l101.9-101.9c3.1-3.1 3.1-8.2 0-11.3l-43-43 66.7-66.7c3.1-3.1 3.1-8.2 0-11.3l-36.6-36.2zM441.7 769.1c-24.9 24.9-58.1 38.7-93.4 38.7-35.3 0-68.4-13.7-93.4-38.7-24.9-24.9-38.7-58.1-38.7-93.4 0-35.3 13.7-68.4 38.7-93.4l59.4-59.4 186.8 186.8-59.4 59.4z" fill="#FF7673" p-id="4594"></path></svg>