<?xml version="1.0" standalone="no"?><!DOCTYPE svg PUBLIC "-//W3C//DTD SVG 1.1//EN" "http://www.w3.org/Graphics/SVG/1.1/DTD/svg11.dtd"><svg t="1578377977412" class="icon" viewBox="0 0 1024 1024" version="1.1" xmlns="http://www.w3.org/2000/svg" p-id="4626" xmlns:xlink="http://www.w3.org/1999/xlink" width="200" height="200"><defs><style type="text/css"></style></defs><path d="M276 160h110.154a8 8 0 0 1 8 8v688a8 8 0 0 1-8 8H276a8 8 0 0 1-8-8V168a8 8 0 0 1 8-8z m471.385 0H638.462c-4.739 0-8.616 3.771-8.616 8.381v687.238c0 4.61 3.877 8.381 8.616 8.381h108.923c4.738 0 8.615-3.771 8.615-8.381V168.381c0-4.61-3.877-8.381-8.615-8.381z" fill="#65B7F3" p-id="4627"></path></svg>