<?xml version="1.0" standalone="no"?><!DOCTYPE svg PUBLIC "-//W3C//DTD SVG 1.1//EN" "http://www.w3.org/Graphics/SVG/1.1/DTD/svg11.dtd"><svg t="1578377991163" class="icon" viewBox="0 0 1024 1024" version="1.1" xmlns="http://www.w3.org/2000/svg" p-id="5028" xmlns:xlink="http://www.w3.org/1999/xlink" width="200" height="200"><defs><style type="text/css"></style></defs><path d="M709.439 122.424l192.818 192.819a8 8 0 0 1 0 11.313L709.439 519.375a8 8 0 0 1-13.657-5.657V366.142h-286.27a8.043 8.043 0 0 1-1.504-0.141L404 366c-109.205 0-198 90.07-198 201.5 0 110.317 87.028 199.696 194.73 201.473L404 769h100a8 8 0 0 1 8 8v76a8 8 0 0 1-8 8H404c-160.31 0-290-131.55-290-293.5 0-160.33 127.109-290.866 285.2-293.46l4.8-0.04h56v0.141l235.781 0.002V128.08a8 8 0 0 1 13.658-5.657z" fill="#8FD460" p-id="5029"></path><path d="M600 624h224a8 8 0 0 1 8 8v224a8 8 0 0 1-8 8H600a8 8 0 0 1-8-8V632a8 8 0 0 1 8-8z" fill="#BBC0C4" p-id="5030"></path></svg>