<?xml version="1.0" standalone="no"?><!DOCTYPE svg PUBLIC "-//W3C//DTD SVG 1.1//EN" "http://www.w3.org/Graphics/SVG/1.1/DTD/svg11.dtd"><svg t="1578377967385" class="icon" viewBox="0 0 1025 1024" version="1.1" xmlns="http://www.w3.org/2000/svg" p-id="4491" xmlns:xlink="http://www.w3.org/1999/xlink" width="200.1953125" height="200"><defs><style type="text/css"></style></defs><path d="M864.077 762.923v90.154a8 8 0 0 1-8 8h-688a8 8 0 0 1-8-8v-90.154a8 8 0 0 1 8-8h688a8 8 0 0 1 8 8z" fill="#BBC0C4" p-id="4492"></path><path d="M481.657 165.79l266.277 266.277 102.41-102.41A8 8 0 0 1 864 335.314V608a8 8 0 0 1-8 8H583.314a8 8 0 0 1-5.657-13.657L682.88 497.12 476 290.24 181.844 584.398a8 8 0 0 1-11.314 0l-53.74-53.74a8 8 0 0 1 0-11.314L470.343 165.79a8 8 0 0 1 11.314 0z" fill="#65B7F3" p-id="4493"></path></svg>