<?xml version="1.0" standalone="no"?><!DOCTYPE svg PUBLIC "-//W3C//DTD SVG 1.1//EN" "http://www.w3.org/Graphics/SVG/1.1/DTD/svg11.dtd"><svg t="1578378005465" class="icon" viewBox="0 0 1025 1024" version="1.1" xmlns="http://www.w3.org/2000/svg" p-id="5432" xmlns:xlink="http://www.w3.org/1999/xlink" width="200.1953125" height="200"><defs><style type="text/css"></style></defs><path d="M864.077 762.923v90.154a8 8 0 0 1-8 8h-688a8 8 0 0 1-8-8v-90.154a8 8 0 0 1 8-8h688a8 8 0 0 1 8 8z" fill="#BBC0C4" p-id="5433"></path><path d="M558.186 120.977l-0.001 326.268 147.576 0.001a8 8 0 0 1 5.657 13.657L518.6 653.721a8 8 0 0 1-11.314 0L314.468 460.903a8 8 0 0 1 5.657-13.657h146.061V120.976a8 8 0 0 1 8-8h76a8 8 0 0 1 8 8z" fill="#65B7F3" p-id="5434"></path></svg>