<?xml version="1.0" standalone="no"?><!DOCTYPE svg PUBLIC "-//W3C//DTD SVG 1.1//EN" "http://www.w3.org/Graphics/SVG/1.1/DTD/svg11.dtd"><svg t="1578377995574" class="icon" viewBox="0 0 1024 1024" version="1.1" xmlns="http://www.w3.org/2000/svg" p-id="5163" xmlns:xlink="http://www.w3.org/1999/xlink" width="200" height="200"><defs><style type="text/css"></style></defs><path d="M864.077 762.923v90.154a8 8 0 0 1-8 8h-688a8 8 0 0 1-8-8v-90.154a8 8 0 0 1 8-8h688a8 8 0 0 1 8 8z" fill="#BBC0C4" p-id="5164"></path><path d="M558.186 655.065l-0.001-326.269h147.576a8 8 0 0 0 5.657-13.657L518.6 122.32a8 8 0 0 0-11.314 0L314.468 315.14a8 8 0 0 0 5.657 13.656l146.061 0.001v326.269a8 8 0 0 0 8 8h76a8 8 0 0 0 8-8z" fill="#65B7F3" p-id="5165"></path></svg>