<?xml version="1.0" standalone="no"?><!DOCTYPE svg PUBLIC "-//W3C//DTD SVG 1.1//EN" "http://www.w3.org/Graphics/SVG/1.1/DTD/svg11.dtd"><svg t="1577347211912" class="icon" viewBox="0 0 1024 1024" version="1.1" xmlns="http://www.w3.org/2000/svg" p-id="8639" xmlns:xlink="http://www.w3.org/1999/xlink" width="200" height="200"><defs><style type="text/css"></style></defs><path d="M550 192a8 8 0 0 1 8 8v232.325l201.2-116.162a8 8 0 0 1 10.928 2.928l38 65.818a8 8 0 0 1-2.928 10.928L604 512l201.2 116.163a8 8 0 0 1 3.056 10.697l-0.128 0.231-38 65.818a8 8 0 0 1-10.928 2.928L558 591.674V824a8 8 0 0 1-8 8h-76a8 8 0 0 1-8-8V591.674L264.8 707.837a8 8 0 0 1-10.928-2.928l-38-65.818a8 8 0 0 1 2.928-10.928L420 511.999 218.8 395.837a8 8 0 0 1-3.056-10.697l0.128-0.231 38-65.818a8 8 0 0 1 10.928-2.928L466 432.325V200a8 8 0 0 1 8-8h76z" p-id="8640"></path></svg>