<?xml version="1.0" standalone="no"?><!DOCTYPE svg PUBLIC "-//W3C//DTD SVG 1.1//EN" "http://www.w3.org/Graphics/SVG/1.1/DTD/svg11.dtd"><svg t="1577347219862" class="icon" viewBox="0 0 1024 1024" version="1.1" xmlns="http://www.w3.org/2000/svg" p-id="8759" xmlns:xlink="http://www.w3.org/1999/xlink" width="200" height="200"><defs><style type="text/css"></style></defs><path d="M350.938 158c2.003 0 4.005 0.802 5.507 2.205l117.456 112.452h408.477c17.724 0 32.043 14.333 32.043 32.072L914.42 384h-72.095v-39.18H444.963L325.204 230.161h-188.75v529.676L448 759.837V832H96.4c-17.546 0-31.755-14.047-32.038-31.54l-0.004-0.532V190.072C64.358 172.332 78.677 158 96.4 158z" p-id="8760"></path><path d="M771.991 416a8 8 0 0 1 8 8v161.646l139.99-80.823a8 8 0 0 1 10.928 2.928l28 48.498a8 8 0 0 1-2.928 10.928l-139.992 80.822 139.992 80.824a8 8 0 0 1 3.056 10.697l-0.128 0.231-28 48.498a8 8 0 0 1-10.697 3.056l-0.231-0.128-139.99-80.824V872a8 8 0 0 1-8 8h-56a8 8 0 0 1-8-8V710.353l-139.99 80.824a8 8 0 0 1-10.928-2.928l-28-48.498a8 8 0 0 1 2.928-10.928L671.991 648l-139.99-80.822a8 8 0 0 1-3.056-10.697l0.128-0.231 28-48.498a8 8 0 0 1 10.698-3.056l0.23 0.128 139.99 80.823V424a8 8 0 0 1 8-8h56z" p-id="8761"></path></svg>