<?xml version="1.0" encoding="UTF-8" standalone="no"?>
<!-- Created with Inkscape (http://www.inkscape.org/) -->

<svg
   xmlns:dc="http://purl.org/dc/elements/1.1/"
   xmlns:cc="http://creativecommons.org/ns#"
   xmlns:rdf="http://www.w3.org/1999/02/22-rdf-syntax-ns#"
   xmlns:svg="http://www.w3.org/2000/svg"
   xmlns="http://www.w3.org/2000/svg"
   xmlns:sodipodi="http://sodipodi.sourceforge.net/DTD/sodipodi-0.dtd"
   xmlns:inkscape="http://www.inkscape.org/namespaces/inkscape"
   width="24"
   height="24"
   viewBox="0 0 24 24"
   id="svg2"
   version="1.1"
   inkscape:version="0.91 r13725"
   sodipodi:docname="png.svg">
  <sodipodi:namedview
     id="base"
     pagecolor="#393939"
     bordercolor="#666666"
     borderopacity="1.0"
     inkscape:pageopacity="0"
     inkscape:pageshadow="2"
     inkscape:zoom="3.959798"
     inkscape:cx="-93.166932"
     inkscape:cy="52.066763"
     inkscape:document-units="px"
     inkscape:current-layer="layer1"
     showgrid="true"
     inkscape:window-width="1536"
     inkscape:window-height="811"
     inkscape:window-x="-8"
     inkscape:window-y="-8"
     inkscape:window-maximized="1"
     objecttolerance="1"
     gridtolerance="1"
     guidetolerance="2"
     units="px">
    <inkscape:grid
       type="xygrid"
       id="grid4443"
       spacingx="24"
       spacingy="24.000001"
       dotted="false"
       snapvisiblegridlinesonly="false" />
  </sodipodi:namedview>
  <defs
     id="defs4">
    <inkscape:perspective
       sodipodi:type="inkscape:persp3d"
       inkscape:vp_x="0 : 526.18109 : 1"
       inkscape:vp_y="0 : 999.99998 : 0"
       inkscape:vp_z="744.09448 : 526.18109 : 1"
       inkscape:persp3d-origin="372.04724 : 350.78739 : 1"
       id="perspective4534" />
  </defs>
  <metadata
     id="metadata7">
    <rdf:RDF>
      <cc:Work
         rdf:about="">
        <dc:format>image/svg+xml</dc:format>
        <dc:type
           rdf:resource="http://purl.org/dc/dcmitype/StillImage" />
        <dc:title></dc:title>
      </cc:Work>
    </rdf:RDF>
  </metadata>
  <g
     id="layer1"
     inkscape:groupmode="layer"
     inkscape:label="Layer 1"
     transform="translate(0,-1028.3621)">
    <path
       style="fill:#e74c3c;fill-opacity:1;fill-rule:evenodd;stroke:none;stroke-width:0.1;stroke-linecap:round;stroke-linejoin:miter;stroke-miterlimit:4;stroke-dasharray:none;stroke-opacity:1"
       d="m 2.732787,1039.5709 5.7381,-5.7055 2.21212,2.2754 c -0.25161,0.8197 -0.0417,1.5684 0.84279,1.962 l 0.0302,5.4397 c -1.37534,0.4804 -1.32541,2.6623 0.41494,2.8996 2.01722,0.079 2.05676,-2.2834 0.84781,-2.7787 l -0.008,-5.4046 2.0521,2.0344 c -0.62105,1.8801 1.432419,2.6005 2.503649,1.5753 0.98367,-1.0983 0.18038,-2.8475 -1.628809,-2.4784 l -2.1849,-2.1874 c 0.51515,-1.133 -0.62283,-2.3305 -1.94504,-1.9623 l -2.26783,-2.2385 1.72381,-1.714 c 0.62829,-0.6443 1.38209,-0.6527 2.03548,0 2.808629,2.7929 5.617269,5.5857 8.425899,8.3786 0.70291,0.7528 0.66944,1.4638 0,2.0828 -2.79286,2.7771 -5.58571,5.5541 -8.378569,8.3312 -0.6859,0.8117 -1.35507,0.8117 -2.08281,0 -2.80863,-2.7771 -5.61727,-5.5541 -8.4259,-8.3312 -0.5625,-0.5625 -0.62616,-1.4567 0.0947,-2.1775 z"
       id="path4368"
       inkscape:connector-curvature="0"
       sodipodi:nodetypes="ccccccccccccccccccccccc" />
  </g>
</svg>
