<?xml version="1.0" encoding="UTF-8" standalone="no"?>
<!-- Created with Inkscape (http://www.inkscape.org/) -->

<svg
   xmlns:dc="http://purl.org/dc/elements/1.1/"
   xmlns:cc="http://creativecommons.org/ns#"
   xmlns:rdf="http://www.w3.org/1999/02/22-rdf-syntax-ns#"
   xmlns:svg="http://www.w3.org/2000/svg"
   xmlns="http://www.w3.org/2000/svg"
   xmlns:sodipodi="http://sodipodi.sourceforge.net/DTD/sodipodi-0.dtd"
   xmlns:inkscape="http://www.inkscape.org/namespaces/inkscape"
   width="24"
   height="24"
   viewBox="0 0 24 24"
   id="svg2"
   version="1.1"
   inkscape:version="0.91 r13725"
   sodipodi:docname="batch - Copy.svg">
  <sodipodi:namedview
     id="base"
     pagecolor="#393939"
     bordercolor="#666666"
     borderopacity="1.0"
     inkscape:pageopacity="0"
     inkscape:pageshadow="2"
     inkscape:zoom="22.4"
     inkscape:cx="5.3552999"
     inkscape:cy="11.202198"
     inkscape:document-units="px"
     inkscape:current-layer="layer1"
     showgrid="true"
     inkscape:window-width="1536"
     inkscape:window-height="811"
     inkscape:window-x="-8"
     inkscape:window-y="-8"
     inkscape:window-maximized="1"
     objecttolerance="1"
     gridtolerance="1"
     guidetolerance="2"
     units="px">
    <inkscape:grid
       type="xygrid"
       id="grid4443"
       spacingx="24"
       spacingy="24.000001"
       dotted="false"
       snapvisiblegridlinesonly="false" />
  </sodipodi:namedview>
  <defs
     id="defs4">
    <inkscape:perspective
       sodipodi:type="inkscape:persp3d"
       inkscape:vp_x="0 : 526.18109 : 1"
       inkscape:vp_y="0 : 999.99998 : 0"
       inkscape:vp_z="744.09448 : 526.18109 : 1"
       inkscape:persp3d-origin="372.04724 : 350.78739 : 1"
       id="perspective4534" />
    <pattern
       y="0"
       x="0"
       height="6"
       width="6"
       patternUnits="userSpaceOnUse"
       id="EMFhbasepattern" />
  </defs>
  <metadata
     id="metadata7">
    <rdf:RDF>
      <cc:Work
         rdf:about="">
        <dc:format>image/svg+xml</dc:format>
        <dc:type
           rdf:resource="http://purl.org/dc/dcmitype/StillImage" />
        <dc:title></dc:title>
      </cc:Work>
    </rdf:RDF>
  </metadata>
  <g
     id="layer1"
     inkscape:groupmode="layer"
     inkscape:label="Layer 1"
     transform="translate(0,-1028.3621)">
    <g
       transform="translate(-26.555699,-1.6056078)"
       id="g4619">
      <path
         inkscape:connector-curvature="0"
         id="path4534"
         transform="translate(-213.47535,-23.884005)"
         d="m 248.41602,1061.4219 a 2.7400389,2.7179418 0 0 0 -2.74024,2.7187 2.7400389,2.7179418 0 0 0 2.74024,2.7168 2.7400389,2.7179418 0 0 0 2.74023,-2.7168 2.7400389,2.7179418 0 0 0 -2.74023,-2.7187 z m -1.30469,1.8554 a 0.90598059,0.92807764 0 0 1 0.90625,0.9297 0.90598059,0.92807764 0 0 1 -0.90625,0.9278 0.90598059,0.92807764 0 0 1 -0.90625,-0.9278 0.90598059,0.92807764 0 0 1 0.90625,-0.9297 z"
         style="fill:#5cace2;fill-opacity:1;stroke:#5cace2;stroke-width:0.30000001;stroke-linecap:round;stroke-linejoin:round;stroke-miterlimit:4;stroke-dasharray:none;stroke-dashoffset:0;stroke-opacity:1" />
      <path
         inkscape:connector-curvature="0"
         id="path4534-7"
         transform="translate(-213.47535,-23.884005)"
         d="m 255.2207,1061.1348 a 2.7400389,2.7179418 0 0 0 -2.74023,2.7187 2.7400389,2.7179418 0 0 0 2.74023,2.7168 2.7400389,2.7179418 0 0 0 2.74024,-2.7168 2.7400389,2.7179418 0 0 0 -2.74024,-2.7187 z m -1.41406,1.9218 a 0.90598059,0.92807764 0 0 1 0.90625,0.9278 0.90598059,0.92807764 0 0 1 -0.90625,0.9297 0.90598059,0.92807764 0 0 1 -0.90625,-0.9297 0.90598059,0.92807764 0 0 1 0.90625,-0.9278 z"
         style="fill:#5cace2;fill-opacity:1;stroke:#5cace2;stroke-width:0.30000001;stroke-linecap:round;stroke-linejoin:round;stroke-miterlimit:4;stroke-dasharray:none;stroke-dashoffset:0;stroke-opacity:1" />
      <path
         sodipodi:nodetypes="cc"
         inkscape:connector-curvature="0"
         id="path4517-09"
         d="m 30.433561,1040.0112 c -1.077421,-0.4028 -0.144206,-1.5198 0.583344,-1.0175"
         style="fill:none;fill-rule:evenodd;stroke:#566473;stroke-width:1;stroke-linecap:butt;stroke-linejoin:miter;stroke-miterlimit:4;stroke-dasharray:none;stroke-opacity:1" />
      <path
         sodipodi:nodetypes="cc"
         inkscape:connector-curvature="0"
         id="path4517-0-1"
         d="m 45.755703,1038.496 c 1.047937,-0.5151 1.683263,0.7272 0.65329,1.1136"
         style="fill:none;fill-rule:evenodd;stroke:#566473;stroke-width:1.20000005;stroke-linecap:butt;stroke-linejoin:miter;stroke-miterlimit:4;stroke-dasharray:none;stroke-opacity:1" />
      <ellipse
         ry="0.6408155"
         rx="1.1269515"
         cy="1043.7142"
         cx="38.453533"
         id="path4598"
         style="fill:#5cace2;fill-opacity:1;stroke:none;stroke-width:1;stroke-linecap:round;stroke-linejoin:round;stroke-miterlimit:4;stroke-dasharray:none;stroke-dashoffset:0;stroke-opacity:1" />
      <path
         sodipodi:nodetypes="csccccc"
         inkscape:connector-curvature="0"
         id="path4600"
         d="m 38.462155,1043.8519 c -0.05408,0.016 -1.152972,0.1424 -1.202917,0.1614 -0.676343,0.2477 -0.973289,0.6902 -0.890838,1.214 0.625002,1.0001 1.718753,0.1252 2.20313,0.094 0.43229,-0.016 1.848955,0.9998 2.14062,-0.094 0.05208,-0.4844 -0.364583,-1.0625 -1.15625,-1.3125 z"
         style="fill:none;fill-rule:evenodd;stroke:#5cace2;stroke-width:0.30000001;stroke-linecap:butt;stroke-linejoin:miter;stroke-miterlimit:4;stroke-dasharray:none;stroke-opacity:1" />
      <path
         sodipodi:nodetypes="ccccc"
         inkscape:connector-curvature="0"
         id="path4602"
         d="m 37.52465,1045.6957 c -0.106388,0.6928 -0.339833,1.8387 0.34375,1.7968 0.814425,-0.055 0.739443,-1.3816 0.70313,-2.1718 0.04229,0.7909 -0.14192,2.2391 0.64062,2.1406 0.758081,-0.048 0.532842,-1.0617 0.48438,-1.75"
         style="fill:none;fill-rule:evenodd;stroke:#5cace2;stroke-width:0.30000001;stroke-linecap:butt;stroke-linejoin:miter;stroke-miterlimit:4;stroke-dasharray:none;stroke-opacity:1" />
      <path
         sodipodi:nodetypes="ccc"
         inkscape:connector-curvature="0"
         id="path4515"
         d="m 30.12294,1048.9401 c -0.633452,-4.4931 -2.106594,-13.0078 8.44108,-13.0815 10.444556,-0.3093 8.603132,8.6621 8.79464,13.1257"
         style="fill:none;fill-rule:evenodd;stroke:#5cace2;stroke-width:1.20000005;stroke-linecap:butt;stroke-linejoin:miter;stroke-miterlimit:4;stroke-dasharray:none;stroke-opacity:1" />
      <path
         sodipodi:nodetypes="cc"
         inkscape:connector-curvature="0"
         id="path4517"
         d="m 30.03455,1041.2061 c -3.509902,-1.3121 -0.469784,-4.9508 1.90035,-3.3145"
         style="fill:none;fill-rule:evenodd;stroke:#5cace2;stroke-width:1.20000005;stroke-linecap:butt;stroke-linejoin:miter;stroke-miterlimit:4;stroke-dasharray:none;stroke-opacity:1" />
      <path
         sodipodi:nodetypes="cc"
         inkscape:connector-curvature="0"
         id="path4517-0"
         d="m 44.829994,1037.4597 c 3.119226,-1.5331 5.010297,2.1645 1.944544,3.3146"
         style="fill:none;fill-rule:evenodd;stroke:#5cace2;stroke-width:1.20000005;stroke-linecap:butt;stroke-linejoin:miter;stroke-miterlimit:4;stroke-dasharray:none;stroke-opacity:1" />
      <path
         transform="translate(-213.47535,-23.884005)"
         inkscape:connector-curvature="0"
         id="path4612"
         d="m 253.5086,1069.4656 c -0.21353,-0.014 -0.39272,-0.065 -0.87086,-0.2466 -0.34013,-0.1295 -0.43554,-0.1574 -0.55441,-0.1624 -0.13554,-0.01 -0.22612,0.019 -0.61299,0.1694 -0.39313,0.1526 -0.57588,0.2013 -0.78189,0.2083 -0.18047,0.01 -0.31931,-0.03 -0.45235,-0.1181 -0.0594,-0.039 -0.16787,-0.1471 -0.21403,-0.2127 l -0.0338,-0.048 -0.004,-0.058 c -0.012,-0.176 0.0335,-0.3419 0.1359,-0.4952 0.0442,-0.066 0.15348,-0.1772 0.23076,-0.2342 0.10636,-0.079 0.24719,-0.1545 0.38172,-0.206 0.0513,-0.02 0.0732,-0.024 0.18915,-0.04 l 0.13115,-0.018 0.0401,0.026 c 0.13526,0.087 0.34816,0.16 0.55922,0.191 0.444,0.065 0.93003,-0.036 1.19269,-0.2475 l 0.038,-0.031 0.0635,0 c 0.0579,0 0.0702,0.01 0.13883,0.032 0.40724,0.1509 0.72191,0.4079 0.86804,0.709 0.0569,0.1173 0.0839,0.2242 0.0845,0.3342 2.8e-4,0.056 -0.002,0.069 -0.0156,0.1103 -0.0743,0.2186 -0.20998,0.3228 -0.4335,0.333 -0.0289,0 -0.0649,0 -0.0801,6e-4 z"
         style="fill:#566473;fill-opacity:1;stroke:none;stroke-width:0.30000001;stroke-linecap:round;stroke-linejoin:round;stroke-miterlimit:4;stroke-dasharray:none;stroke-dashoffset:0;stroke-opacity:1" />
      <path
         transform="translate(-213.47535,-23.884005)"
         inkscape:connector-curvature="0"
         id="path4615"
         d="m 251.24072,1071.2119 c -0.07,-0.017 -0.11689,-0.07 -0.15941,-0.1801 -0.057,-0.1477 -0.0509,-0.6 0.0139,-1.0303 0.0275,-0.1823 0.0516,-0.3326 0.0535,-0.334 0.002,0 0.0583,-0.02 0.12511,-0.042 0.0668,-0.022 0.2344,-0.082 0.37234,-0.1342 l 0.25081,-0.095 -0.01,0.5455 c -0.008,0.4635 -0.0169,0.571 -0.056,0.7147 -0.0791,0.2902 -0.19819,0.4712 -0.34605,0.526 -0.0704,0.026 -0.19543,0.041 -0.24432,0.029 z"
         style="fill:#566473;fill-opacity:1;stroke:none;stroke-width:0.30000001;stroke-linecap:round;stroke-linejoin:round;stroke-miterlimit:4;stroke-dasharray:none;stroke-dashoffset:0;stroke-opacity:1" />
      <path
         transform="translate(-213.47535,-23.884005)"
         inkscape:connector-curvature="0"
         id="path4617"
         d="m 252.45232,1071.1312 c -0.16619,-0.1398 -0.22796,-0.471 -0.22815,-1.2233 l -1.3e-4,-0.5134 0.1099,0.043 c 0.0604,0.024 0.23836,0.09 0.39537,0.1461 l 0.28548,0.1029 0.0122,0.08 c 0.007,0.044 0.0243,0.2391 0.0391,0.4336 0.0533,0.7014 -0.0514,0.9598 -0.39646,0.9793 -0.13507,0.01 -0.15618,0 -0.21732,-0.048 z"
         style="fill:#566473;fill-opacity:1;stroke:none;stroke-width:0.30000001;stroke-linecap:round;stroke-linejoin:round;stroke-miterlimit:4;stroke-dasharray:none;stroke-dashoffset:0;stroke-opacity:1" />
    </g>
  </g>
</svg>
