<?xml version="1.0" encoding="UTF-8" standalone="no"?>
<!-- Created with Inkscape (http://www.inkscape.org/) -->

<svg
   xmlns:dc="http://purl.org/dc/elements/1.1/"
   xmlns:cc="http://creativecommons.org/ns#"
   xmlns:rdf="http://www.w3.org/1999/02/22-rdf-syntax-ns#"
   xmlns:svg="http://www.w3.org/2000/svg"
   xmlns="http://www.w3.org/2000/svg"
   xmlns:sodipodi="http://sodipodi.sourceforge.net/DTD/sodipodi-0.dtd"
   xmlns:inkscape="http://www.inkscape.org/namespaces/inkscape"
   width="24"
   height="24"
   viewBox="0 0 24 24"
   id="svg2"
   version="1.1"
   inkscape:version="0.91 r13725"
   sodipodi:docname="batch - Copy.svg">
  <sodipodi:namedview
     id="base"
     pagecolor="#393939"
     bordercolor="#666666"
     borderopacity="1.0"
     inkscape:pageopacity="0"
     inkscape:pageshadow="2"
     inkscape:zoom="11.2"
     inkscape:cx="12.803785"
     inkscape:cy="17.579779"
     inkscape:document-units="px"
     inkscape:current-layer="layer1"
     showgrid="true"
     inkscape:window-width="983"
     inkscape:window-height="703"
     inkscape:window-x="464"
     inkscape:window-y="63"
     inkscape:window-maximized="0"
     objecttolerance="1"
     gridtolerance="1"
     guidetolerance="2"
     units="px">
    <inkscape:grid
       type="xygrid"
       id="grid4443"
       spacingx="24"
       spacingy="24.000001"
       dotted="false"
       snapvisiblegridlinesonly="false" />
  </sodipodi:namedview>
  <defs
     id="defs4">
    <inkscape:perspective
       sodipodi:type="inkscape:persp3d"
       inkscape:vp_x="0 : 526.18109 : 1"
       inkscape:vp_y="0 : 999.99998 : 0"
       inkscape:vp_z="744.09448 : 526.18109 : 1"
       inkscape:persp3d-origin="372.04724 : 350.78739 : 1"
       id="perspective4534" />
  </defs>
  <metadata
     id="metadata7">
    <rdf:RDF>
      <cc:Work
         rdf:about="">
        <dc:format>image/svg+xml</dc:format>
        <dc:type
           rdf:resource="http://purl.org/dc/dcmitype/StillImage" />
        <dc:title></dc:title>
      </cc:Work>
    </rdf:RDF>
  </metadata>
  <g
     id="layer1"
     inkscape:groupmode="layer"
     inkscape:label="Layer 1"
     transform="translate(0,-1028.3621)">
    <g
       transform="matrix(0.18726368,0,0,0.18726368,-0.16545435,857.31567)"
       id="g4213"
       style="fill:#117ec2;fill-opacity:1">
      <path
         sodipodi:nodetypes="ccccccc"
         inkscape:connector-curvature="0"
         id="path4180"
         d="m 25.810307,947.63732 c -13.675421,8.13134 -9.88696,22.49977 -1.524625,22.31497 6.421904,0.1848 6.883912,-7.53073 2.633444,-11.9198 5.821293,0.46201 7.761725,5.9137 7.900327,9.28635 0,4.89729 -3.603659,10.48758 -11.226782,10.53378 -7.854126,0.0924 -14.4608334,-5.35929 -14.4146323,-14.69184 0.1386022,-9.05534 7.6231233,-15.06144 16.6322683,-15.52346 z"
         style="fill:#117ec2;fill-opacity:1;fill-rule:evenodd;stroke:none;stroke-width:0.43906948;stroke-linecap:butt;stroke-linejoin:round;stroke-miterlimit:4;stroke-dasharray:none;stroke-opacity:1" />
      <path
         sodipodi:nodetypes="ccccc"
         inkscape:connector-curvature="0"
         id="path4182"
         d="m 29.829772,945.28109 c 23.562381,-11.18058 46.154546,14.09123 51.560033,18.43411 6.098499,5.8675 21.067545,25.8724 45.738745,32.1558 -24.4402,3.3726 -40.702863,-14.87671 -55.856709,-30.63119 -13.121012,-10.94957 -17.787287,-18.8499 -41.442069,-19.95872 z"
         style="fill:#117ec2;fill-opacity:1;fill-rule:evenodd;stroke:none;stroke-width:0.54883683;stroke-linecap:butt;stroke-linejoin:round;stroke-miterlimit:4;stroke-dasharray:none;stroke-opacity:1" />
      <path
         sodipodi:nodetypes="ccccc"
         inkscape:connector-curvature="0"
         id="path4182-5"
         d="m 29.023116,954.60017 c 16.909472,-8.82434 28.274857,10.90339 32.571527,16.07786 4.573873,5.4517 10.810974,18.66509 26.750229,25.22577 -17.232875,2.4024 -27.397041,-13.76797 -31.185502,-18.29566 -5.497888,-6.2371 -12.243198,-22.86938 -28.136254,-23.00797 z"
         style="fill:#117ec2;fill-opacity:1;fill-rule:evenodd;stroke:none;stroke-width:0.54883683;stroke-linecap:butt;stroke-linejoin:round;stroke-miterlimit:4;stroke-dasharray:none;stroke-opacity:1" />
      <path
         sodipodi:nodetypes="ccccc"
         inkscape:connector-curvature="0"
         id="path4199"
         d="m 38.284509,971.75411 c 6.560506,-4.71247 12.150796,6.51432 15.107644,11.6426 2.171434,4.94346 4.342869,8.91669 9.424951,13.58299 -10.53377,-0.1849 -13.72162,-5.3593 -17.879688,-12.19697 -2.910647,-5.7289 -1.801829,-10.48758 -6.652907,-13.02862 z"
         style="fill:#117ec2;fill-opacity:1;fill-rule:evenodd;stroke:none;stroke-width:0.54883683;stroke-linecap:butt;stroke-linejoin:round;stroke-miterlimit:4;stroke-dasharray:none;stroke-opacity:1" />
      <path
         sodipodi:nodetypes="ccc"
         inkscape:connector-curvature="0"
         id="path4201-8"
         d="m 34.958055,976.7438 c -4.204268,12.8438 -17.972089,16.5399 -32.1557194,18.1569 7.5307214,9.1939 41.2572674,2.8644 32.1557194,-18.1569 z"
         style="fill:#117ec2;fill-opacity:1;fill-rule:evenodd;stroke:none;stroke-width:0.54883683;stroke-linecap:butt;stroke-linejoin:round;stroke-miterlimit:4;stroke-dasharray:none;stroke-opacity:1" />
      <path
         sodipodi:nodetypes="ccccc"
         inkscape:connector-curvature="0"
         id="path4203-6"
         d="m 22.622456,1000.4448 c 17.186678,-7.5307 33.541741,-2.1715 48.233578,0.693 17.094277,2.6334 36.544786,2.3562 55.025086,-2.0791 -14.18363,11.9661 -43.197693,12.4281 -55.856698,9.7022 -16.216463,-3.465 -29.522276,-8.3161 -47.401966,-8.3161 z"
         style="fill:#117ec2;fill-opacity:1;fill-rule:evenodd;stroke:none;stroke-width:0.54883683;stroke-linecap:butt;stroke-linejoin:round;stroke-miterlimit:4;stroke-dasharray:none;stroke-opacity:1" />
    </g>
  </g>
</svg>
