<?xml version="1.0" encoding="UTF-8" standalone="no"?>
<!-- Created with Inkscape (http://www.inkscape.org/) -->

<svg
   xmlns:dc="http://purl.org/dc/elements/1.1/"
   xmlns:cc="http://creativecommons.org/ns#"
   xmlns:rdf="http://www.w3.org/1999/02/22-rdf-syntax-ns#"
   xmlns:svg="http://www.w3.org/2000/svg"
   xmlns="http://www.w3.org/2000/svg"
   xmlns:sodipodi="http://sodipodi.sourceforge.net/DTD/sodipodi-0.dtd"
   xmlns:inkscape="http://www.inkscape.org/namespaces/inkscape"
   width="24"
   height="24"
   viewBox="0 0 24 24"
   id="svg2"
   version="1.1"
   inkscape:version="0.91 r13725"
   sodipodi:docname="batch.svg">
  <sodipodi:namedview
     id="base"
     pagecolor="#393939"
     bordercolor="#666666"
     borderopacity="1.0"
     inkscape:pageopacity="0"
     inkscape:pageshadow="2"
     inkscape:zoom="11.2"
     inkscape:cx="-3.0221679"
     inkscape:cy="16.906107"
     inkscape:document-units="px"
     inkscape:current-layer="layer1"
     showgrid="true"
     inkscape:window-width="1536"
     inkscape:window-height="811"
     inkscape:window-x="-8"
     inkscape:window-y="-8"
     inkscape:window-maximized="1"
     objecttolerance="1"
     gridtolerance="1"
     guidetolerance="2"
     units="px">
    <inkscape:grid
       type="xygrid"
       id="grid4443"
       spacingx="24"
       spacingy="24.000001"
       dotted="false"
       snapvisiblegridlinesonly="false" />
  </sodipodi:namedview>
  <defs
     id="defs4">
    <inkscape:perspective
       sodipodi:type="inkscape:persp3d"
       inkscape:vp_x="0 : 526.18109 : 1"
       inkscape:vp_y="0 : 999.99998 : 0"
       inkscape:vp_z="744.09448 : 526.18109 : 1"
       inkscape:persp3d-origin="372.04724 : 350.78739 : 1"
       id="perspective4534" />
  </defs>
  <metadata
     id="metadata7">
    <rdf:RDF>
      <cc:Work
         rdf:about="">
        <dc:format>image/svg+xml</dc:format>
        <dc:type
           rdf:resource="http://purl.org/dc/dcmitype/StillImage" />
        <dc:title></dc:title>
      </cc:Work>
    </rdf:RDF>
  </metadata>
  <g
     id="layer1"
     inkscape:groupmode="layer"
     inkscape:label="Layer 1"
     transform="translate(0,-1028.3621)">
    <path
       style="fill:none;fill-rule:evenodd;stroke:#8e44ad;stroke-width:1;stroke-linecap:butt;stroke-linejoin:miter;stroke-miterlimit:4;stroke-dasharray:none;stroke-opacity:1"
       d="m 4.5395135,1047.1287 c -0.0558,-1.1492 0.29009,-2.6331 0.33472,-4.1505 -1.22731,-1.1157 -1.48392,-2.1645 -1.87443,-3.3472 -0.65828,0.7141 -0.74755,0.8256 -1.10458,1.138 -0.32356,-2.8674 2.63313,-5.3332 3.78234,-5.8911 3.1128996,-1.3166 5.7571795,-0.5244 6.2257895,-0.3347 0.1562,0.4017 -0.92605,2.4434 0.66944,5.0208 0.65828,0.5913 1.88559,1.5174 3.48109,1.0711 0.7587,-0.5913 0.74754,-1.1492 0.93721,-2.0752 -0.52439,1.0599 -0.98184,2.3542 -2.54387,1.6736 -3.09058,-1.8521 -2.36535,-5.5787 -0.33472,-6.3597 2.14221,-0.4798 3.71539,-0.1562 5.6233,0.6694 2.05295,1.1715 2.59966,5.7907 1.74054,7.4308 -0.76986,1.4839 -3.44762,2.9344 -3.01248,3.548 0.40166,0.4798 1.27193,0.4909 0.40166,1.3389 -1.20499,0.8033 -1.43929,-0.1004 -1.60665,-0.4016 -0.63597,-1.417 -0.43514,-1.8298 0.40166,-2.5439 0.52439,-0.5913 0.94837,-1.0488 0.66944,-1.4728 -0.64712,-0.636 -2.73354,0.9037 -2.94553,1.205 -0.73639,2.4768 0.26777,2.6345 0.60249,4.0166 -0.98184,0.2901 -3.30257,0.212 -3.74886,-0.1338 0.43513,-2.2873 0.16736,-3.1687 -0.40167,-3.5481 -1.10458,0.357 -2.3430399,0.3459 -3.3137295,-0.1674 -1.6736,0.7475 -0.13389,2.6331 0.3012496,3.7824 -1.4950796,0.4463 -3.6261296,0.3236 -4.2844096,-0.4686 z"
       id="path4756"
       inkscape:connector-curvature="0"
       sodipodi:nodetypes="ccccccccccccccccccccccccc" />
    <path
       style="fill:#8e44ad;fill-opacity:1;fill-rule:evenodd;stroke:none;stroke-width:0.1;stroke-linecap:butt;stroke-linejoin:miter;stroke-miterlimit:4;stroke-dasharray:none;stroke-opacity:1"
       d="m 19.457523,1040.1871 c 0.27752,0.4937 0.78336,0.9125 1.10458,1.4728 0.29745,0.5188 -1.51016,0.2689 -1.77402,-0.2678 -0.20273,-0.4123 0.4443,-1.6056 0.66944,-1.205 z"
       id="path4758"
       inkscape:connector-curvature="0"
       sodipodi:nodetypes="ssas" />
    <path
       style="fill:none;fill-rule:evenodd;stroke:#8e44ad;stroke-width:1.20000005;stroke-linecap:butt;stroke-linejoin:miter;stroke-miterlimit:4;stroke-dasharray:none;stroke-opacity:1"
       d="m 8.2214335,1046.3254 c -0.64713,0.2678 -0.69176,1.0711 -0.63597,1.5062"
       id="path4760"
       inkscape:connector-curvature="0"
       sodipodi:nodetypes="cc" />
    <path
       style="fill:none;fill-rule:evenodd;stroke:#8e44ad;stroke-width:1.20000005;stroke-linecap:butt;stroke-linejoin:miter;stroke-miterlimit:4;stroke-dasharray:none;stroke-opacity:1"
       d="m 15.320333,1046.2816 c -0.64713,0.2678 -0.69176,1.0711 -0.63597,1.5062"
       id="path4760-2"
       inkscape:connector-curvature="0"
       sodipodi:nodetypes="cc" />
    <path
       style="fill:#8e44ad;fill-opacity:1;stroke:none;stroke-width:1.20000005;stroke-linecap:round;stroke-linejoin:round;stroke-miterlimit:4;stroke-dasharray:none;stroke-dashoffset:0;stroke-opacity:1"
       id="path4777"
       sodipodi:type="arc"
       sodipodi:cx="19.680552"
       sodipodi:cy="1038.7948"
       sodipodi:rx="0.42865413"
       sodipodi:ry="0.43845785"
       sodipodi:start="1.0366802"
       sodipodi:end="1.0106718"
       d="m 19.898771,1039.1722 a 0.42865413,0.43845785 0 0 1 -0.585744,-0.1517 0.42865413,0.43845785 0 0 1 0.144526,-0.6002 0.42865413,0.43845785 0 0 1 0.587623,0.144 0.42865413,0.43845785 0 0 1 -0.136884,0.602"
       sodipodi:open="true" />
    <path
       style="fill:#8e44ad;fill-opacity:1;stroke:none;stroke-width:1.20000005;stroke-linecap:round;stroke-linejoin:round;stroke-miterlimit:4;stroke-dasharray:none;stroke-dashoffset:0;stroke-opacity:1"
       id="path4779"
       sodipodi:type="arc"
       sodipodi:cx="19.575495"
       sodipodi:cy="1038.0023"
       sodipodi:rx="0.012552001"
       sodipodi:ry="0.016736001"
       sodipodi:start="5.3112464"
       sodipodi:end="1.0106713"
       d="m 19.58257,1037.9885 a 0.012552,0.016736 0 0 1 0.0055,0.014 0.012552,0.016736 0 0 1 -0.0059,0.014 l -0.0067,-0.014 z" />
  </g>
</svg>
