<?xml version="1.0" encoding="UTF-8" standalone="no"?>
<!-- Created with Inkscape (http://www.inkscape.org/) -->

<svg
   xmlns:dc="http://purl.org/dc/elements/1.1/"
   xmlns:cc="http://creativecommons.org/ns#"
   xmlns:rdf="http://www.w3.org/1999/02/22-rdf-syntax-ns#"
   xmlns:svg="http://www.w3.org/2000/svg"
   xmlns="http://www.w3.org/2000/svg"
   xmlns:sodipodi="http://sodipodi.sourceforge.net/DTD/sodipodi-0.dtd"
   xmlns:inkscape="http://www.inkscape.org/namespaces/inkscape"
   width="24"
   height="24"
   viewBox="0 0 24 24"
   id="svg2"
   version="1.1"
   inkscape:version="0.91 r13725"
   sodipodi:docname="batch - Copy.svg">
  <sodipodi:namedview
     id="base"
     pagecolor="#393939"
     bordercolor="#666666"
     borderopacity="1.0"
     inkscape:pageopacity="0"
     inkscape:pageshadow="2"
     inkscape:zoom="11.2"
     inkscape:cx="12.803785"
     inkscape:cy="17.624422"
     inkscape:document-units="px"
     inkscape:current-layer="layer1"
     showgrid="true"
     inkscape:window-width="983"
     inkscape:window-height="703"
     inkscape:window-x="464"
     inkscape:window-y="63"
     inkscape:window-maximized="0"
     objecttolerance="1"
     gridtolerance="1"
     guidetolerance="2"
     units="px">
    <inkscape:grid
       type="xygrid"
       id="grid4443"
       spacingx="24"
       spacingy="24.000001"
       dotted="false"
       snapvisiblegridlinesonly="false" />
  </sodipodi:namedview>
  <defs
     id="defs4">
    <inkscape:perspective
       sodipodi:type="inkscape:persp3d"
       inkscape:vp_x="0 : 526.18109 : 1"
       inkscape:vp_y="0 : 999.99998 : 0"
       inkscape:vp_z="744.09448 : 526.18109 : 1"
       inkscape:persp3d-origin="372.04724 : 350.78739 : 1"
       id="perspective4534" />
    <pattern
       y="0"
       x="0"
       height="6"
       width="6"
       patternUnits="userSpaceOnUse"
       id="EMFhbasepattern" />
    <pattern
       y="0"
       x="0"
       height="6"
       width="6"
       patternUnits="userSpaceOnUse"
       id="EMFhbasepattern-9" />
    <pattern
       y="0"
       x="0"
       height="6"
       width="6"
       patternUnits="userSpaceOnUse"
       id="EMFhbasepattern-4" />
    <pattern
       y="0"
       x="0"
       height="6"
       width="6"
       patternUnits="userSpaceOnUse"
       id="EMFhbasepattern-3" />
    <pattern
       y="0"
       x="0"
       height="6"
       width="6"
       patternUnits="userSpaceOnUse"
       id="EMFhbasepattern-6" />
  </defs>
  <metadata
     id="metadata7">
    <rdf:RDF>
      <cc:Work
         rdf:about="">
        <dc:format>image/svg+xml</dc:format>
        <dc:type
           rdf:resource="http://purl.org/dc/dcmitype/StillImage" />
        <dc:title></dc:title>
      </cc:Work>
    </rdf:RDF>
  </metadata>
  <g
     id="layer1"
     inkscape:groupmode="layer"
     inkscape:label="Layer 1"
     transform="translate(0,-1028.3621)">
    <path
       inkscape:connector-curvature="0"
       id="path4338"
       d="m 21.658616,1038.4558 c 0,3.8544 -4.373511,6.9678 -9.784772,6.9678 -5.3371248,0 -9.7106048,-3.1134 -9.7106048,-6.9678 0,-3.7805 4.37348,-6.8938 9.7106048,-6.8938 5.411261,0 9.784772,3.1133 9.784772,6.8938 z"
       style="fill:#bdc3c7;fill-opacity:1;fill-rule:nonzero;stroke:none" />
    <path
       inkscape:connector-curvature="0"
       id="path4340"
       d="m 7.6486182,1049.4264 0,-14.1582 6.0042528,0 c 1.556673,0 2.668582,0.074 3.335727,0.3709 0.667146,0.2206 1.186034,0.6672 1.630798,1.3343 0.444763,0.6672 0.59302,1.4082 0.59302,2.2235 0,1.038 -0.29652,1.9275 -0.889527,2.6686 -0.667145,0.6671 -1.556673,1.1119 -2.816839,1.2604 0.593021,0.3705 1.111909,0.741 1.482548,1.1858 0.444764,0.4447 0.963652,1.1861 1.704926,2.298 l 1.704926,2.8167 -3.409852,0 -2.075565,-3.1133 c -0.741274,-1.1119 -1.260162,-1.7791 -1.482544,-2.0753 -0.296521,-0.2977 -0.593021,-0.519 -0.889527,-0.5933 -0.296521,-0.074 -0.815371,-0.1471 -1.408392,-0.1471 l -0.593006,0 0,5.9301 -2.8909458,0 z m 2.8909458,-8.2281 2.075523,0 c 1.408419,0 2.223818,0 2.594457,-0.1471 0.29652,-0.1471 0.593017,-0.2977 0.815398,-0.5929 0.148243,-0.2977 0.296521,-0.6671 0.296521,-1.0376 0,-0.519 -0.148243,-0.8896 -0.444764,-1.1862 -0.222381,-0.2977 -0.593017,-0.4448 -1.03778,-0.519 -0.222382,-0.073 -0.963656,-0.073 -2.075565,-0.073 l -2.22378,0 0,3.5577 z"
       style="fill:#2980b9;fill-opacity:1;fill-rule:nonzero;stroke:none" />
  </g>
</svg>
