<?xml version="1.0" encoding="UTF-8" standalone="no"?>
<!-- Created with Inkscape (http://www.inkscape.org/) -->

<svg
   xmlns:dc="http://purl.org/dc/elements/1.1/"
   xmlns:cc="http://creativecommons.org/ns#"
   xmlns:rdf="http://www.w3.org/1999/02/22-rdf-syntax-ns#"
   xmlns:svg="http://www.w3.org/2000/svg"
   xmlns="http://www.w3.org/2000/svg"
   xmlns:sodipodi="http://sodipodi.sourceforge.net/DTD/sodipodi-0.dtd"
   xmlns:inkscape="http://www.inkscape.org/namespaces/inkscape"
   width="24"
   height="24"
   viewBox="0 0 24 24"
   id="svg2"
   version="1.1"
   inkscape:version="0.91 r13725"
   sodipodi:docname="batch - Copy.svg">
  <sodipodi:namedview
     id="base"
     pagecolor="#393939"
     bordercolor="#666666"
     borderopacity="1.0"
     inkscape:pageopacity="0"
     inkscape:pageshadow="2"
     inkscape:zoom="15.839192"
     inkscape:cx="3.8406993"
     inkscape:cy="9.2194486"
     inkscape:document-units="px"
     inkscape:current-layer="layer1"
     showgrid="true"
     inkscape:window-width="1536"
     inkscape:window-height="811"
     inkscape:window-x="-8"
     inkscape:window-y="-8"
     inkscape:window-maximized="1"
     objecttolerance="1"
     gridtolerance="1"
     guidetolerance="2"
     units="px">
    <inkscape:grid
       type="xygrid"
       id="grid4443"
       spacingx="24"
       spacingy="24.000001"
       dotted="false"
       snapvisiblegridlinesonly="false" />
  </sodipodi:namedview>
  <defs
     id="defs4">
    <inkscape:perspective
       sodipodi:type="inkscape:persp3d"
       inkscape:vp_x="0 : 526.18109 : 1"
       inkscape:vp_y="0 : 999.99998 : 0"
       inkscape:vp_z="744.09448 : 526.18109 : 1"
       inkscape:persp3d-origin="372.04724 : 350.78739 : 1"
       id="perspective4534" />
    <pattern
       y="0"
       x="0"
       height="6"
       width="6"
       patternUnits="userSpaceOnUse"
       id="EMFhbasepattern" />
  </defs>
  <metadata
     id="metadata7">
    <rdf:RDF>
      <cc:Work
         rdf:about="">
        <dc:format>image/svg+xml</dc:format>
        <dc:type
           rdf:resource="http://purl.org/dc/dcmitype/StillImage" />
        <dc:title></dc:title>
      </cc:Work>
    </rdf:RDF>
  </metadata>
  <g
     id="layer1"
     inkscape:groupmode="layer"
     inkscape:label="Layer 1"
     transform="translate(0,-1028.3621)">
    <g
       transform="translate(-191.49624,-24.650232)"
       id="g5078">
      <path
         d="m 194.45478,1066.8513 a 10.433273,4.0498643 0 0 1 3.7927,-5.5247 10.433273,4.0498643 0 0 1 14.24574,1.4532 10.433273,4.0498643 0 0 1 -3.69448,5.5347 10.433273,4.0498643 0 0 1 -14.27122,-1.415"
         sodipodi:open="true"
         sodipodi:end="2.6045548"
         sodipodi:start="2.6183429"
         sodipodi:ry="4.0498643"
         sodipodi:rx="10.433273"
         sodipodi:cy="1064.8276"
         sodipodi:cx="203.49208"
         sodipodi:type="arc"
         id="path5053"
         style="fill:none;fill-opacity:1;stroke:#2980b9;stroke-width:1.20000005;stroke-linecap:square;stroke-linejoin:round;stroke-miterlimit:4;stroke-dasharray:none;stroke-dashoffset:0;stroke-opacity:1" />
      <path
         transform="matrix(-0.5,-0.8660254,0.8660254,-0.5,0,0)"
         d="m -1032.951,-354.16077 a 10.433273,4.0498643 0 0 1 3.7927,-5.5247 10.433273,4.0498643 0 0 1 14.2457,1.45315 10.433273,4.0498643 0 0 1 -3.6944,5.53472 10.433273,4.0498643 0 0 1 -14.2713,-1.415"
         sodipodi:open="true"
         sodipodi:end="2.6045548"
         sodipodi:start="2.6183429"
         sodipodi:ry="4.0498643"
         sodipodi:rx="10.433273"
         sodipodi:cy="-356.18448"
         sodipodi:cx="-1023.9137"
         sodipodi:type="arc"
         id="path5053-9"
         style="fill:none;fill-opacity:1;stroke:#2980b9;stroke-width:1.20000005;stroke-linecap:square;stroke-linejoin:round;stroke-miterlimit:4;stroke-dasharray:none;stroke-dashoffset:0;stroke-opacity:1" />
      <path
         transform="matrix(0.5,-0.8660254,0.8660254,0.5,0,0)"
         d="m -829.45887,710.66659 a 10.433273,4.0498643 0 0 1 3.7927,-5.5247 10.433273,4.0498643 0 0 1 14.24574,1.45315 10.433273,4.0498643 0 0 1 -3.69448,5.53472 10.433273,4.0498643 0 0 1 -14.27122,-1.41499"
         sodipodi:open="true"
         sodipodi:end="2.6045548"
         sodipodi:start="2.6183429"
         sodipodi:ry="4.0498643"
         sodipodi:rx="10.433273"
         sodipodi:cy="708.64288"
         sodipodi:cx="-820.42157"
         sodipodi:type="arc"
         id="path5053-4"
         style="fill:none;fill-opacity:1;stroke:#2980b9;stroke-width:1.20000005;stroke-linecap:square;stroke-linejoin:round;stroke-miterlimit:4;stroke-dasharray:none;stroke-dashoffset:0;stroke-opacity:1" />
      <path
         d="m 201.75724,1065.7835 a 2,2 0 0 1 0.72704,-2.7284 2,2 0 0 1 2.73083,0.7176 2,2 0 0 1 -0.70821,2.7333 2,2 0 0 1 -2.73572,-0.6988"
         sodipodi:open="true"
         sodipodi:end="2.6045548"
         sodipodi:start="2.6183429"
         sodipodi:ry="2"
         sodipodi:rx="2"
         sodipodi:cy="1064.7841"
         sodipodi:cx="203.48964"
         sodipodi:type="arc"
         id="path5076"
         style="fill:#2980b9;fill-opacity:1;stroke:none;stroke-width:1.20000005;stroke-linecap:square;stroke-linejoin:round;stroke-miterlimit:4;stroke-dasharray:none;stroke-dashoffset:0;stroke-opacity:1" />
    </g>
  </g>
</svg>
