<?xml version="1.0" encoding="UTF-8" standalone="no"?>
<!-- Created with Inkscape (http://www.inkscape.org/) -->

<svg
   xmlns:dc="http://purl.org/dc/elements/1.1/"
   xmlns:cc="http://creativecommons.org/ns#"
   xmlns:rdf="http://www.w3.org/1999/02/22-rdf-syntax-ns#"
   xmlns:svg="http://www.w3.org/2000/svg"
   xmlns="http://www.w3.org/2000/svg"
   xmlns:sodipodi="http://sodipodi.sourceforge.net/DTD/sodipodi-0.dtd"
   xmlns:inkscape="http://www.inkscape.org/namespaces/inkscape"
   width="24"
   height="24"
   viewBox="0 0 24 24"
   id="svg2"
   version="1.1"
   inkscape:version="0.91 r13725"
   sodipodi:docname="jupyter.svg">
  <sodipodi:namedview
     id="base"
     pagecolor="#393939"
     bordercolor="#666666"
     borderopacity="1.0"
     inkscape:pageopacity="0"
     inkscape:pageshadow="2"
     inkscape:zoom="3.959798"
     inkscape:cx="1.0297919"
     inkscape:cy="52.066763"
     inkscape:document-units="px"
     inkscape:current-layer="layer1"
     showgrid="true"
     inkscape:window-width="706"
     inkscape:window-height="708"
     inkscape:window-x="148"
     inkscape:window-y="205"
     inkscape:window-maximized="0"
     objecttolerance="1"
     gridtolerance="1"
     guidetolerance="2"
     units="px">
    <inkscape:grid
       type="xygrid"
       id="grid4443"
       spacingx="24"
       spacingy="24.000001"
       dotted="false"
       snapvisiblegridlinesonly="false" />
  </sodipodi:namedview>
  <defs
     id="defs4">
    <inkscape:perspective
       sodipodi:type="inkscape:persp3d"
       inkscape:vp_x="0 : 526.18109 : 1"
       inkscape:vp_y="0 : 999.99998 : 0"
       inkscape:vp_z="744.09448 : 526.18109 : 1"
       inkscape:persp3d-origin="372.04724 : 350.78739 : 1"
       id="perspective4534" />
  </defs>
  <metadata
     id="metadata7">
    <rdf:RDF>
      <cc:Work
         rdf:about="">
        <dc:format>image/svg+xml</dc:format>
        <dc:type
           rdf:resource="http://purl.org/dc/dcmitype/StillImage" />
        <dc:title></dc:title>
      </cc:Work>
    </rdf:RDF>
  </metadata>
  <g
     id="layer1"
     inkscape:groupmode="layer"
     inkscape:label="Layer 1"
     transform="translate(0,-1028.3621)">
    <g
       id="layer1-50"
       inkscape:label="Layer 1"
       transform="translate(2.7855273,1028.6443)"
       style="fill:#5cace2;fill-opacity:1;stroke:none">
      <path
         sodipodi:nodetypes="ccccsccccccccccsccaccccsc"
         inkscape:connector-curvature="0"
         id="path4155"
         d="M 13.190997,21.103625 11.752482,19.259441 C 10.644299,19.463349 8.392068,17.8496 7.0093515,16.072437 l 1.2569276,-0.302564 c 0,0 -1.2487074,0.03722 -1.7291756,-0.242787 C 5.1499696,14.718693 4.5486284,11.710167 4.5486284,11.710167 l 1.4230654,-0.356786 c 0,0 -1.2623019,0.03273 -1.5823231,-0.344515 C 4.0101029,8.8898131 4.2787899,7.886027 4.6235251,6.9508732 l 1.3558418,0.095593 C 5.5714072,6.6594814 5.235915,6.7599966 4.7554887,5.8855112 5.2900739,4.0610333 5.677131,3.4953144 6.6634388,2.0883775 8.398176,3.0915889 9.2045442,4.0480259 9.8702632,5.5077052 L 9.2566892,6.6226236 10.36428,6.2611776 c 0,0 1.366643,2.3680168 1.364417,3.0520772 -0.0015,0.4772945 -1.13376,1.0694522 -1.13376,1.0694522 l 1.386973,-0.291202 c 0,0 1.34493,2.192079 1.109281,3.350559 -0.09553,0.469619 -0.965139,1.175841 -0.965139,1.175841 l 1.201547,-0.284491 c 0.534153,0.749342 1.266411,2.913677 -0.365158,4.58499 -1.512905,-1.254958 -3.9810738,-6.09905 -5.1777135,-10.9007459 0,0 0.3195851,6.2314129 6.0490565,12.6609809 0.145758,0.163574 -0.642787,0.424986 -0.642787,0.424986 z"
         style="fill:#5cace2;fill-opacity:1;fill-rule:evenodd;stroke:none;stroke-width:0.6113711;stroke-linecap:butt;stroke-linejoin:miter;stroke-miterlimit:4;stroke-dasharray:none;stroke-opacity:0" />
    </g>
  </g>
</svg>
